<?xml version="1.0" encoding="utf-8"?>
<!-- Generator: Adobe Illustrator 17.0.0, SVG Export Plug-In . SVG Version: 6.00 Build 0)  -->
<!DOCTYPE svg PUBLIC "-//W3C//DTD SVG 1.1//EN" "http://www.w3.org/Graphics/SVG/1.1/DTD/svg11.dtd">
<svg version="1.1" id="Capa_1" xmlns="http://www.w3.org/2000/svg" xmlns:xlink="http://www.w3.org/1999/xlink" x="0px" y="0px"
	 width="500px" height="554.5px" viewBox="0 0 500 554.5" enable-background="new 0 0 500 554.5" xml:space="preserve">
<g>
	<g>
		<g>
			<defs>
				<rect id="SVGID_1_" x="118.142" y="41.5" width="271.714" height="475.5"/>
			</defs>
			<clipPath id="SVGID_2_">
				<use xlink:href="#SVGID_1_"  overflow="visible"/>
			</clipPath>
			<g clip-path="url(#SVGID_2_)">
				<g>
					<defs>
						<polygon id="SVGID_3_" points="252.828,514.04 387.513,514.04 387.513,42.787 252.828,42.787 118.142,42.787 118.142,514.04 
													"/>
					</defs>
					<clipPath id="SVGID_4_">
						<use xlink:href="#SVGID_3_"  overflow="visible"/>
					</clipPath>
					<g clip-path="url(#SVGID_4_)">
						<g>
							<defs>
								<rect id="SVGID_5_" x="118.142" y="41.5" width="271.714" height="475.5"/>
							</defs>
							<clipPath id="SVGID_6_">
								<use xlink:href="#SVGID_5_"  overflow="visible"/>
							</clipPath>
							<g clip-path="url(#SVGID_6_)">
								<g>
									<g>
										<defs>
											<rect id="SVGID_7_" x="118.142" y="41.5" width="271.714" height="475.5"/>
										</defs>
										<clipPath id="SVGID_8_">
											<use xlink:href="#SVGID_7_"  overflow="visible"/>
										</clipPath>
										<g clip-path="url(#SVGID_8_)" enable-background="new    ">
											<g>
												<defs>
													<path id="SVGID_9_" d="M353.603,259.982c25.019-25.973,36.845-56.7,33.293-86.52
														c-1.626-13.647-9.981-44.035-20.322-73.9c-5.189-14.988-10.199-27.803-14.484-37.055
														c-6.743-14.559-11.229-19.72-17.136-19.72H170.709c-5.909,0-10.391,5.16-17.136,19.72
														c-4.286,9.253-9.295,22.065-14.484,37.055c-10.34,29.865-18.697,60.252-20.321,73.9
														c-7.445,62.512,52.914,119.769,113.594,131.64c0.784,10.81,1.493,41.104,1.082,77.201
														c-0.661,58.091-3.583,79.2-5.175,82.459c-2.38,4.19-16.549,9.874-38.128,12.147l-0.601,0.063
														c-11.536,1.213-33.009,3.478-33.009,20.604c0,8.159,3.844,12.099,7.069,13.969c3.781,2.191,8.308,2.494,12.638,2.494
														c1.123,0,2.292-0.021,3.499-0.043c1.2-0.023,2.438-0.045,3.704-0.045h138.784c1.265,0,2.503,0.023,3.703,0.045
														c1.207,0.023,2.378,0.043,3.501,0.043c4.874,0,19.709,0,19.709-16.463c0-17.126-21.476-19.389-33.01-20.604
														l-0.604-0.063c-21.579-2.278-35.747-7.959-38.093-12.088c-1.633-3.363-4.443-24.509-4.636-82.437
														c-0.123-37.203,0.947-67.348,1.931-77.736C303.255,298.423,332.428,281.962,353.603,259.982 M258.633,380.949
														c0.13,52.938,2.297,83.488,6.45,90.803c7.391,13.026,33.845,17.642,48.95,19.236l0.607,0.063
														c6.087,0.643,20.338,2.144,20.338,6.527c0,1.007-0.115,1.558-0.188,1.807c-0.482,0.195-1.805,0.501-5.363,0.501
														c-1.038,0-2.121-0.021-3.239-0.043c-1.282-0.023-2.607-0.048-3.964-0.048h-68.903h-69.881
														c-1.357,0-2.682,0.026-3.966,0.048c-1.118,0.023-2.2,0.043-3.238,0.043c-3.556,0-4.878-0.304-5.361-0.501
														c-0.075-0.248-0.188-0.799-0.188-1.81c0-4.384,14.25-5.884,20.337-6.525l0.604-0.063
														c15.108-1.594,41.558-6.211,48.953-19.239c1.535-2.705,6.207-10.936,7.04-91.1c0.195-18.966,0.098-38.952-0.269-54.832
														c-0.607-26.249-1.508-28.109-2.303-29.75c-1.061-2.189-3.097-3.71-5.443-4.069
														c-27.337-4.193-56.073-19.504-76.869-40.957c-22.369-23.079-32.992-50.035-29.911-75.905
														c3.143-26.394,30.471-106.922,39.852-118.193h160.311c9.381,11.272,36.708,91.802,39.852,118.193
														c6.521,54.76-50.235,106.68-105.342,116.519c-2.361,0.422-4.319,1.956-5.379,4.206
														C258.488,303.595,258.625,377.793,258.633,380.949"/>
												</defs>
												<clipPath id="SVGID_10_">
													<use xlink:href="#SVGID_9_"  overflow="visible"/>
												</clipPath>
												<g clip-path="url(#SVGID_10_)">
													<g>
														<defs>
															<rect id="SVGID_11_" x="118.142" y="41.5" width="271.714" height="475.5"/>
														</defs>
														<clipPath id="SVGID_12_">
															<use xlink:href="#SVGID_11_"  overflow="visible"/>
														</clipPath>
														<rect x="75.687" y="0.332" clip-path="url(#SVGID_12_)" width="354.282" height="556.165"/>
													</g>
												</g>
											</g>
										</g>
									</g>
								</g>
								<g opacity="0.8" enable-background="new    ">
									<defs>
										<rect id="SVGID_13_" x="118.142" y="41.5" opacity="0.8" enable-background="new    " width="271.714" height="475.5"/>
									</defs>
									<clipPath id="SVGID_14_">
										<use xlink:href="#SVGID_13_"  overflow="visible"/>
									</clipPath>
									<g clip-path="url(#SVGID_14_)">
										<g>
											<defs>
												<path id="SVGID_15_" d="M332.349,238.9c9.508-11.565,17.089-21.798,18.432-35.399c0.11-1.125,0.295-5.148-3.42-5.148
													c-47.029,0-142.14,0.018-189.17,0.018c-4.066,0-3.429,3.933-3.313,5.13c1.359,13.951,9.156,24.514,19.003,36.345
													c16.489,19.81,38.136,32.685,62.216,34.445c4.081,0.298,10.806,0.482,17.549,0.482c6.42,0,12.265-0.172,15.633-0.458
													C293.876,272.217,315.843,258.978,332.349,238.9"/>
											</defs>
											<clipPath id="SVGID_16_">
												<use xlink:href="#SVGID_15_"  overflow="visible"/>
											</clipPath>
											<g clip-path="url(#SVGID_16_)">
												<g>
													<defs>
														<rect id="SVGID_17_" x="118.142" y="41.5" width="271.714" height="475.5"/>
													</defs>
													<clipPath id="SVGID_18_">
														<use xlink:href="#SVGID_17_"  overflow="visible"/>
													</clipPath>
													<rect x="112.318" y="155.898" clip-path="url(#SVGID_18_)" width="280.962" height="161.331"/>
												</g>
											</g>
										</g>
									</g>
								</g>
							</g>
						</g>
					</g>
				</g>
			</g>
		</g>
	</g>
</g>
</svg>
