<?xml version="1.0" encoding="utf-8"?>
<!-- Generator: Adobe Illustrator 17.0.0, SVG Export Plug-In . SVG Version: 6.00 Build 0)  -->
<!DOCTYPE svg PUBLIC "-//W3C//DTD SVG 1.1//EN" "http://www.w3.org/Graphics/SVG/1.1/DTD/svg11.dtd">
<svg version="1.1" id="Capa_1" xmlns="http://www.w3.org/2000/svg" xmlns:xlink="http://www.w3.org/1999/xlink" x="0px" y="0px"
	 width="500px" height="554.5px" viewBox="0 0 500 554.5" enable-background="new 0 0 500 554.5" xml:space="preserve">
<g>
	
		<path fill="none" stroke="#262626" stroke-width="9.4071" stroke-linecap="round" stroke-linejoin="round" stroke-miterlimit="10" d="
		M449.917,479.404c-30.646-64.337-110.165-64.096-110.165-64.096s-35.751-51.71-90.554-51.71c-67.698,0-92.124,51.71-92.124,51.71
		c-77.369-34.982-108.595,64.096-108.595,64.096S245.19,479.404,449.917,479.404z"/>
	
		<path fill="none" stroke="#262626" stroke-width="10.2939" stroke-linecap="round" stroke-linejoin="round" stroke-miterlimit="10" d="
		M291.03,236.121c0,0-8.955-15.973-50.172,7.103c-31.724-9.127-63.042-57.42-57.276-78.813c0,0,14.934-10.572,48.571,0.021
		c0,0,7.892-63.796,37.568-89.642c26.959,15.345,45.059,48.194,45.059,48.194s47.035-33.8,89.141-34.178
		c12.046,16.063-3.544,89.903-8.309,96.121c0,0,36.699,17.494,55.241,30.944c-15.599,28.282-59.19,59.408-78.447,56.798
		c0,0,20.46,37.695,16.589,50.671c0,0-58.939,14.023-94.344-37.375C294.651,285.964,306.52,249.51,291.03,236.121z"/>
	<path fill="#262626" d="M232.937,363.598c0,0,21.052-109.88,50.707-130.053c29.655-20.173-33.019,28.401-26.498,123.62
		C246.226,376.465,232.937,363.598,232.937,363.598z"/>
	
		<path fill="none" stroke="#262626" stroke-width="2.5735" stroke-linecap="round" stroke-linejoin="round" stroke-miterlimit="10" d="
		M403.92,88.805c-11.615,21.157-115.782,143.767-115.782,143.767s67.606-41.671,107.473-47.646"/>
	
		<path fill="none" stroke="#262626" stroke-width="2.5735" stroke-linecap="round" stroke-linejoin="round" stroke-miterlimit="10" d="
		M289.599,229.777c0,0,70.148,19.491,84.946,42.652"/>
	
		<path fill="none" stroke="#262626" stroke-width="2.5735" stroke-linecap="round" stroke-linejoin="round" stroke-miterlimit="10" d="
		M290.841,232.573c0,0-32.442-58.765-59.146-65.269"/>
	
		<path fill="none" stroke="#262626" stroke-width="2.5735" stroke-linecap="round" stroke-linejoin="round" stroke-miterlimit="10" d="
		M316.872,117.995c0,0-8.78,52.271-27.273,111.782"/>
</g>
</svg>
